PathFileType	4	(X/Y/Z)	66_2_96_p1_0-240_filt_butterworth.trc
DataRate	CameraRate	NumFrames	NumMarkers	Units	OrigDataRate	OrigDataStartFrame	OrigNumFrames
59.0	59.0	6	27	m	59.0	120	240
Frame#	Time	RHip			RKnee			RAnkle			RBigToe			RSmallToe			RHeel			LHip			LKnee			LAnkle			LBigToe			LSmallToe			LHeel			Neck			Head			Nose			RShoulder			RElbow			RWrist			RThumb			RIndex			RPinky			LShoulder			LElbow			LWrist			LThumb			LIndex			LPinky			
		X1	Y1	Z1	X2	Y2	Z2	X3	Y3	Z3	X4	Y4	Z4	X5	Y5	Z5	X6	Y6	Z6	X7	Y7	Z7	X8	Y8	Z8	X9	Y9	Z9	X10	Y10	Z10	X11	Y11	Z11	X12	Y12	Z12	X13	Y13	Z13	X14	Y14	Z14	X15	Y15	Z15	X16	Y16	Z16	X17	Y17	Z17	X18	Y18	Z18	X19	Y19	Z19	X20	Y20	Z20	X21	Y21	Z21	X22	Y22	Z22	X23	Y23	Z23	X24	Y24	Z24	X25	Y25	Z25	X26	Y26	Z26	X27	Y27	Z27	
120	2.0338983050847457	0.5069211988058396	0.8479483930594713	0.7372279890047218	0.4970104129169278	0.9440305731705582	1.200634450924325	0.484788151915415	1.1380839095538964	1.601529678465043	0.48286882244117246	0.9235276324542303	1.6528535307138046	0.5486468857916114	0.9826838771691006	1.6474819601396167	0.47346718614591066	1.2068659154730499	1.6601259532044965	0.3147876198338937	0.9187441194616754	0.741403349743342	0.3074258469300094	1.0255575193844013	1.194525833088019	0.30383644401153925	1.1488584095110728	1.5861340918816786	0.30264352850175974	0.9618987880939841	1.6440899937388913	0.2603816639296324	1.009072042905915	1.6425945561153912	0.3237672411414081	1.204562096543818	1.6358789300681444	0.41965915917139657	0.7708806921508427	0.18813965333968125	0.4431652103252054	0.6363244448689256	-0.053859935149630944	0.41321567572888296	0.5747180209549809	0.09392214993882238	0.5700548908234353	0.7434076637850726	0.2871727272757452	0.5829114498962157	0.7860662480518449	0.5667567614556939	0.48719323812784343	0.6701645694569426	0.7773171353140216	0.39930250987926474	0.6611883087299796	0.8562817071086876	0.406395503106228	0.7160633909044359	0.8777679816605866	0.42556755247677763	0.7576575264097248	0.890101812801171	0.29018883641637827	0.7727011039749597	0.2812386441468515	0.22889344112641016	0.8420991765103992	0.5397251992351839	0.33091331365219356	0.7192519913507357	0.7694870404349751	0.44028854413588275	0.6535563928937771	0.814883796426615	0.4301216901135324	0.6825412684068434	0.8582406193340342	0.3906565605657073	0.7213459697402234	0.871735168347725
121	2.0508474576271185	0.5068462628485084	0.8479081387409625	0.7375784140796825	0.4969674567279864	0.9439817547421324	1.2006847387329918	0.484993513539017	1.1386495821584797	1.6044811085129957	0.4827916915645569	0.9228510864931713	1.6513683059418973	0.5481700052926995	0.9831688761654693	1.6473538913589336	0.4732869736499646	1.2077482536929167	1.6607530386672544	0.31575730076409775	0.9184036851786753	0.7408118297197847	0.3071339345721581	1.025927813532706	1.196500620486385	0.3038175832621587	1.1489076417226367	1.5861900728933134	0.3040654587858137	0.9597508231734392	1.6414509848497423	0.2603962178180905	1.0089803112106934	1.642445312158764	0.32369516444114543	1.2056368695091364	1.6371053880177526	0.4196529392516389	0.7708402698742579	0.1881500595502903	0.4440921232584456	0.6391281228669226	-0.05389623839565966	0.4132211668951693	0.5746931104296006	0.09392610195246731	0.5700353287147062	0.7434318429064214	0.2871679210011885	0.5829132304991825	0.7860316222848597	0.5668580184746754	0.4871878544117311	0.6701065614708783	0.7773153752523567	0.39920534840392324	0.656546108996314	0.853560132865028	0.40604083913140054	0.7147463212179885	0.8773862439796833	0.42561220290898594	0.7574507441118802	0.8899696283003508	0.290156622059116	0.7726738993572286	0.281231660671758	0.23020200544231287	0.8379653261381271	0.5395664317236377	0.3307841890522216	0.7185822840663398	0.768420877693907	0.4379942300713833	0.6503053600908454	0.8131320863215246	0.42836223027378173	0.6824745915040107	0.8575166078957385	0.3897147465608509	0.718123817033896	0.870677029251845
122	2.067796610169492	0.5067375444382602	0.8478885464988771	0.7377936363408945	0.49703203308683197	0.9439336270647543	1.2006622721161735	0.4850669885620637	1.1386302662403003	1.6049456439429914	0.4829462951572154	0.9232891960777271	1.6506891174073588	0.5484568616786976	0.9841900154819061	1.6476454128557512	0.4720883942256261	1.2080548428380304	1.659697305024697	0.31654762398539416	0.9178164467110281	0.7408061045597609	0.30697324334974446	1.0260193817603787	1.1986779608624178	0.30381274907266487	1.1489377879496805	1.5862191126634944	0.3059501786969726	0.9552541472640492	1.6385165526699927	0.26045312461701453	1.008937846118731	1.642388516033129	0.32351740347044655	1.2061096876037207	1.6379756466741435	0.4196482570784964	0.7707817564882097	0.18816072248434576	0.4453204583320988	0.6428154372309843	-0.054522267870348924	0.4132205148440742	0.5746533720443957	0.0939274970089642	0.5700317110485991	0.7434263635787484	0.2871578296383668	0.5829321216655775	0.7859209850069171	0.5670423104807835	0.487187155101145	0.6700714848225855	0.777317364467354	0.39923479199513695	0.6551243574010112	0.8529030429711518	0.4060836909954617	0.7148449531950744	0.8773121521445045	0.4256374561057494	0.7573409387007024	0.8898872779641193	0.29014317640294873	0.7726148347328761	0.28122393826118675	0.23186720833069688	0.8328183934857359	0.5393860497500961	0.3307311371525022	0.7183248185262421	0.768026622958025	0.43729134600820585	0.6492736369515623	0.8127541700735983	0.4283534495527352	0.6828321156443058	0.8585731803419587	0.3903613913583493	0.7201094672064773	0.871172780566174
123	2.0847457627118646	0.5066541852375281	0.8478623113365371	0.737842523395822	0.4971291237500912	0.9439033427340057	1.2005818136162927	0.4849701888467586	1.1380351376239204	1.6029115663401718	0.4832628772321105	0.9241444978118564	1.6501155142853035	0.5492145974237802	0.9851038658656021	1.6481757146895863	0.47087678067549654	1.208024181769546	1.657756218565893	0.3164011975243013	0.9170567744929254	0.7409102530564977	0.3069929037477937	1.0258554589571036	1.2004928814774611	0.3038147592285257	1.1489470363891157	1.5862110723588443	0.3073542267638517	0.9496761854979762	1.6366490987310782	0.26055020237683874	1.0089095288053351	1.6423908351788707	0.323390126970341	1.2055511736636018	1.6377893029450454	0.4196443252185048	0.7707522328161069	0.1881689330582236	0.4462461453968654	0.645611649377081	-0.055957219152016735	0.41321593529255407	0.5746347436932169	0.09392255773849487	0.5700354461027306	0.7434103395808023	0.2871546449329855	0.5829475145862119	0.7858444440259135	0.5671108190404668	0.4872005758741448	0.670066716047255	0.7773244046157771	0.3993352774498153	0.6559472088521211	0.8539490683874553	0.40622040221414696	0.715251925271195	0.87735179184867	0.42565318147345405	0.7573102671364568	0.8898504319070752	0.29014277744574024	0.7725509353000268	0.28121799301465816	0.23308971734131545	0.8290817073594117	0.5392484665246545	0.3307419711604987	0.7183352734221841	0.7680564370803988	0.43748780378251884	0.6495032903508124	0.8129795089684113	0.42911501465106444	0.683280097021188	0.8600402690038553	0.39147478845470474	0.7235073999613408	0.8720294055403139
124	2.101694915254237	0.5066107390204028	0.8478592183535465	0.7378439786240407	0.4971974898633269	0.9439038640466197	1.2005190053872188	0.4848098174602359	1.1376557493057002	1.6007521651259078	0.48377137080172294	0.9249839016837516	1.6498374994200842	0.5498661698334817	0.9859841052594969	1.6486319969522123	0.4703952572558483	1.2079177317467071	1.656141699675784	0.31543808434120396	0.9164851238531095	0.74098823450317	0.3070688263598568	1.0256777836590727	1.201563319280764	0.3038172906673941	1.148949811806387	1.5861693913146113	0.30780980384096057	0.9457626174493794	1.6365293242534436	0.260641017504803	1.0089618543417522	1.6424368498639705	0.3232475404625665	1.2045729265801521	1.6374999886900634	0.41964180819432967	0.770797793554179	0.1881695299739337	0.4465962680698863	0.6468326489541878	-0.05752103500989181	0.4132059043168978	0.5746404816325666	0.09392360426457987	0.5700362283926563	0.7433934770639404	0.28715985313919856	0.5829500689540219	0.7858536217443121	0.5667715469178979	0.4872256372420092	0.6700691082848957	0.7773344446246049	0.3994357253027857	0.6571065593992595	0.8555810753746276	0.4063094900811574	0.7154864932317401	0.8773959447820536	0.42566989677362105	0.7573101451653217	0.889853391828435	0.29013405953141075	0.7725126533092866	0.28121511493937595	0.23354180047561382	0.8277104528915638	0.5391760881115248	0.330792667161678	0.7183898319295053	0.7681789823218594	0.43780834575856115	0.6499027339947097	0.8131901356330256	0.4297500317173394	0.6835520354295211	0.8608355721806091	0.39217213593472966	0.7253999881619189	0.8724840279827564
125	2.1186440677966103	0.5065879942584517	0.8479065004983053	0.7378799522031632	0.49723621546085506	0.9439436384791157	1.2005222131904552	0.4844661118032036	1.139059158919248	1.6002618731494038	0.48444558404266885	0.9257623808737476	1.6502550325382632	0.55004685799037	0.9879344452055934	1.6489197866080665	0.4705229065360974	1.2077717035022966	1.655366887412847	0.31451561528733196	0.916326867736992	0.7410387309936928	0.3071186342211334	1.025609426188066	1.201910543107204	0.3038197902646381	1.1489568872169031	1.586128391462079	0.30758017169624086	0.9447111295177675	1.6378368232230458	0.2606773911088005	1.0091336537772162	1.6425416805199864	0.32287844290716694	1.204534044611405	1.6380567161279214	0.41963963487418154	0.7709130022791669	0.18816185906504618	0.4465966606648999	0.647272270773231	-0.05808151195587726	0.41318993858549136	0.574649918583534	0.09394460120738575	0.570031114678945	0.7433760241096193	0.2871611611727391	0.5829440103695502	0.7859510904899013	0.5658339413972633	0.4872468331467478	0.6700591597063099	0.7773361101363128	0.39951047268621337	0.6577503536256082	0.856801045342467	0.40631234440046793	0.7154672390331838	0.8774313022791191	0.42568988677937	0.7573185462389072	0.8898839067310067	0.2901069990187612	0.7724953411424919	0.28121476018908276	0.23352110773032173	0.8277723760790945	0.5391449924266798	0.33086683440774245	0.7183762939936748	0.7682498920724529	0.4380422871090503	0.6500604121095812	0.813327208468194	0.4303707777224716	0.6835330311443611	0.8609430849018872	0.39239099294241486	0.7257194145542611	0.8725530747045576
